#!OML:ASF F:\VICON\USERDATA\INSTALL\rory3\rory3.ASF
:FULLY-SPECIFIED
:DEGREES
58
root 0.30019907514071176 17.836911010406595 29.16251311478078 -0.8748373749645848 -2.298505725866294 -7.374489067553729
lfemur -27.031232112310228 -4.512024349234769 -10.460682614727308
ltibia 18.708986384644597
lfoot 0.1804989232859624 -2.265813998476786
ltoes -20.559836394038758
rfemur -4.126650327954499 1.8832440232829475 34.89983598263767
rtibia 27.763076544561933
rfoot 0.19179820469047915 -10.577829679381635
rtoes 0.9421294829251596
lowerback -1.0 1.4745932863896762 5.671860293464876
upperback -0.7056717892503634 3.8557177002026117 1.0164613225963415
thorax -6.163052323211247 1.5253917743562504 -2.236432863303862
lowerneck -18.071640792551303 -3.8522399628315545 -2.2045734688773857
upperneck 19.739144570135707 -5.137535772852396 3.7339692599786343
head 9.028351209456384 -2.0894028017036685 0.9293499083164911
lclavicle -2.2682963622906082e-14 -3.159766806390629e-14
lhumerus -33.393520732321676 4.413851803577534 82.6088008505332
lradius 27.407957810545255
lwrist 9.179183897932678
lhand -32.48645169130108 13.94677597620819
lfingers nan
lthumb -5.209068089469437 45.49383417817904
rclavicle -2.280880505817603e-14 -3.160852678918643e-14
rhumerus -28.196342084924318 -16.94166376010259 -78.89225712061061
rradius 32.50156183506035
rwrist 0.21097768869144895
rhand -19.351961455187617 -1.0
rfingers nan
rthumb 7.143479606904433 -6.5133680394588165
59
root 0.3216758961697349 17.790483410802324 29.48150486351324 -0.4432280847268024 -2.980741873890264 -8.145142109615918
lfemur -25.497425513501707 -7.721430319539628 -8.30007886915302
ltibia 7.095051220891726
lfoot -0.6248008586519731 -1.32703790146273
ltoes -23.428580178779235
rfemur -1.9796992658378088 1.557089126332844 35.263265896589786
rtibia 25.4290940928359
rfoot 1.0368816479562755 -10.074183665380648
rtoes -0.4904639955500736
lowerback -1.0 1.6954320339332578 6.402878900188963
upperback -0.7718401347698363 4.048858028261803 1.1883849910232134
thorax -6.100886296996798 1.7145171665764363 -2.617898953190399
lowerneck -18.284667853596037 -3.7749965144376825 -1.937741632468563
upperneck 19.777851038657907 -4.945242055821572 3.3945203470085237
head 9.056803814363048 -2.0366902963989086 0.7997063995370308
lclavicle 2.6571352572154725e-14 -1.27825964179725e-14
lhumerus -33.652340004561864 6.730872973224015 81.7279301441582
lradius 24.52600142405169
lwrist 7.221221626854757
lhand -29.578221545454333 17.217776535457517
lfingers nan
lthumb -2.38218213389107 48.81522469781456
rclavicle 2.737232936693933e-14 -1.2827748609109602e-14
rhumerus -26.506429393966137 -16.529488824410492 -79.03992428295041
rradius 32.633372365586254
rwrist 0.0666011237272679
rhand -19.351977223745074 -1.0
rfingers nan
rthumb 7.172283350787046 -6.547828720524469
60
root 0.354265260708541 17.73432874879429 30.063220565107038 -0.20286389851462383 -3.624960064687247 -7.905532785640149
lfemur -23.508361691706142 -9.213995403069958 -7.982774744367504
ltibia -0.08473254308137967
lfoot -3.4691583403782995 0.733810475091234
ltoes -25.604054967954994
rfemur -0.45293053478544465 1.5069622691622686 34.2278245428316
rtibia 25.1036308664315
rfoot 0.7632095666366743 -9.175038678002679
rtoes -5.04397917963184
lowerback -1.0 1.8833812264327603 6.144934976878315
upperback -0.9284257962751732 4.046295466397873 1.0196988320056821
thorax -5.979425740969729 1.864274349635499 -2.795699631387886
lowerneck -17.422442802892125 -3.8037219699629046 -1.8282317543007305
upperneck 19.6926240447754 -5.001279123806731 3.331813360888753
head 8.919000495475135 -2.0724957368157124 0.7725818007962326
lclavicle -2.6666337799114003e-14 -6.6050854736126605e-15
lhumerus -35.16127619784844 8.852114635478786 80.65158863248625
lradius 23.473362811055765
lwrist 4.526937750808541
lhand -31.45119046640014 17.14016663651278
lfingers nan
lthumb -4.233332622393101 48.62467983598585
rclavicle -2.5985011323462226e-14 -6.18454830203228e-15
rhumerus -25.475998166305406 -15.978931065159912 -79.20764283641375
rradius 32.54471968886814
rwrist 0.07718797621546791
rhand -19.360872375987356 -1.0
rfingers nan
rthumb 7.190330758937423 -6.887354053315413
61
root 0.37933140749359096 17.672211493241974 31.14935142126855 -0.34331171904840163 -3.19865066141256 -7.585400088139632
lfemur -23.290023046472445 -5.104113860522284 -9.967656926544947
ltibia 1.6357265532037424
lfoot -2.3126787100400854 -3.543732588503403
ltoes -25.351950447974506
rfemur 0.8312232272600291 1.383831494485973 34.12133829878639
rtibia 26.70151544139134
rfoot -0.13821209822838743 -8.272317184376506
rtoes -11.875145569023196
lowerback -1.0 1.6391572503229557 6.164233078620481
upperback -0.7796596523533537 3.5672030445580365 1.1007732083717492
thorax -6.014663768665576 1.730539095983317 -2.7568637547044625
lowerneck -18.074621899099117 -3.680354972671521 -1.8458213019676333
upperneck 19.782025361116162 -4.801820760297264 3.4109435134606088
head 9.031482389651305 -1.9615848493895534 0.8051382669178497
lclavicle -3.586104671744582e-14 -1.890965994768849e-15
lhumerus -35.9133006950746 10.552663670107982 79.90399945445043
lradius 22.091938706201315
lwrist 3.0048098273955963
lhand -31.519272876660928 16.337496818093786
lfingers nan
lthumb -4.306430208591547 47.846674869580546
rclavicle -3.578869232693474e-14 -1.5666492476631868e-15
rhumerus -24.15954842201273 -16.065180560735605 -79.33698186465644
rradius 31.87344145603905
rwrist 1.071241289055635
rhand -19.320755490890292 -1.0
rfingers nan
rthumb 7.230379401933458 -6.205868442922967
